<?xml version="1.0" encoding="utf-8"?>
<!-- Generator: Adobe Illustrator 19.2.0, SVG Export Plug-In . SVG Version: 6.00 Build 0)  -->
<svg version="1.1" id="Layer_1" xmlns="http://www.w3.org/2000/svg" xmlns:xlink="http://www.w3.org/1999/xlink" x="0px" y="0px"
	 viewBox="0 0 612 792" style="enable-background:new 0 0 612 792;" xml:space="preserve">
<style type="text/css">
	.st0{fill:#FFFFFF;}
</style>
<g>
	<path class="st0" d="M306,92.5C138.4,92.5,2.5,228.3,2.5,396S138.4,699.5,306,699.5S609.5,563.5,609.5,396S473.6,92.5,306,92.5z
		 M152.9,546.1V343.5h67.3v202.6H152.9z M186.5,315.9h-0.5c-22.6,0-37.2-15.5-37.2-35c0-19.9,15.1-35,38.1-35
		c23,0,37.2,15.1,37.7,35C224.7,300.3,210,315.9,186.5,315.9z M463.2,546.1h-67.4V437.7c0-27.2-9.7-45.8-34.1-45.8
		c-18.6,0-29.7,12.5-34.6,24.6c-1.7,4.3-2.2,10.4-2.2,16.5v113.2h-67.4c0,0,0.9-183.6,0-202.6h67.4v28.7
		c8.9-13.8,24.9-33.4,60.7-33.4c44.3,0,77.6,29,77.6,91.2V546.1z"/>
	<path class="st0" d="M306.3,396.5v-0.9c-0.2,0.3-0.4,0.6-0.6,0.9H306.3z"/>
</g>
</svg>
